<svg id="catcare-add-cat" xmlns="http://www.w3.org/2000/svg" width="24" height="24" viewBox="0 0 24 24">
  <g transform="translate(0 24) scale(0.025 -0.025)" fill="#05807b">
<path d="M392 723 c-59 -21 -135 -99 -156 -159 -34 -101 -12 -197 64 -274 108
-107 262 -107 370 0 107 108 107 262 0 370 -76 75 -178 99 -278 63z m166 -68
c161 -68 161 -292 0 -360 -96 -40 -205 4 -249 100 -73 158 89 326 249 260z"/>
<path d="M450 560 l0 -50 -50 0 -50 0 0 -35 0 -35 50 0 50 0 0 -50 0 -50 35 0
35 0 0 50 0 50 50 0 50 0 0 35 0 35 -50 0 -50 0 0 50 0 50 -35 0 -35 0 0 -50z"/>
</g>
</svg>
