<svg id="catcare-ai-credit" xmlns="http://www.w3.org/2000/svg" width="24" height="24" viewBox="0 0 24 24">
  <g transform="translate(0 24) scale(0.025 -0.025)" fill="#05807b">
<path d="M703 858 c-6 -7 -13 -25 -17 -40 -4 -19 -17 -32 -41 -42 -46 -20 -46
-47 0 -69 24 -12 37 -26 43 -49 12 -47 43 -49 65 -4 10 22 31 43 57 56 50 25
50 50 1 66 -25 8 -39 22 -54 53 -20 42 -37 51 -54 29z"/>
<path d="M219 810 c-16 -38 -28 -52 -48 -56 -54 -12 -61 -16 -61 -33 0 -17 24
-34 68 -46 14 -4 31 -24 45 -53 12 -25 27 -48 34 -50 6 -1 22 22 36 52 21 46
31 57 59 64 47 12 47 36 -1 63 -29 16 -45 35 -58 66 -24 59 -47 57 -74 -7z"/>
<path d="M483 668 c-4 -7 -20 -39 -35 -71 -46 -96 -104 -142 -213 -168 -67
-15 -80 -23 -80 -45 0 -22 50 -43 108 -43 40 -1 99 -27 132 -58 22 -21 47 -74
65 -141 19 -72 60 -66 81 12 29 112 115 186 215 186 39 0 55 5 70 21 28 31 8
52 -56 62 -29 4 -68 14 -86 23 -47 22 -115 102 -138 160 -21 53 -34 74 -47 74
-4 0 -11 -6 -16 -12z m51 -211 c17 -18 42 -40 56 -50 24 -17 24 -18 5 -30 -26
-16 -68 -58 -81 -82 -10 -18 -11 -18 -25 0 -8 10 -31 35 -51 55 l-37 38 26 23
c13 13 32 36 41 52 21 35 29 34 66 -6z"/>
</g>
</svg>
