<svg id="catcare-ai-checklist" xmlns="http://www.w3.org/2000/svg" width="24" height="24" viewBox="0 0 24 24">
  <g transform="translate(0 24) scale(0.025 -0.025)" fill="#05807b">
<path d="M351 860 c-35 -36 -43 -40 -89 -40 -43 0 -57 -5 -87 -31 l-35 -31 0
-313 0 -313 31 -31 c18 -19 41 -31 57 -31 238 -3 518 3 534 11 10 6 28 25 38
42 19 30 20 52 20 320 0 236 -3 293 -15 317 -23 44 -53 60 -114 60 -51 0 -56
2 -88 40 l-35 40 -89 0 -89 0 -39 -40z m183 -30 c21 -8 26 -16 26 -45 l0 -35
-86 0 -85 0 3 37 c2 30 8 39 28 44 38 11 86 10 114 -1z m-206 -98 c6 -42 39
-53 158 -50 l109 3 24 38 c20 31 30 37 58 37 19 0 43 -5 54 -10 18 -10 19 -24
19 -303 0 -215 -3 -296 -12 -305 -9 -9 -80 -12 -259 -12 -212 0 -250 2 -263
16 -14 13 -16 54 -16 296 0 324 -1 321 79 316 39 -3 46 -6 49 -26z"/>
<path d="M436 545 c-42 -50 -55 -54 -81 -25 -14 15 -21 17 -32 9 -7 -6 -13
-18 -13 -26 0 -20 52 -83 70 -83 8 0 34 19 57 42 l43 43 68 -3 c49 -3 71 0 80
10 19 24 -3 40 -57 43 -30 2 -60 10 -70 19 -10 9 -20 16 -23 16 -3 0 -22 -20
-42 -45z"/>
<path d="M421 348 l-33 -33 -15 23 c-17 25 -58 30 -66 8 -9 -22 59 -106 86
-106 5 0 26 18 48 40 39 39 41 40 113 40 80 0 101 14 67 44 -13 12 -38 16 -92
16 -70 0 -76 -2 -108 -32z"/>
</g>
</svg>
