<svg id="catcare-ai-review" xmlns="http://www.w3.org/2000/svg" width="24" height="24" viewBox="0 0 24 24">
  <g transform="translate(0 24) scale(0.025 -0.025)" fill="#05807b">
<path d="M462 882 c-9 -6 -12 -56 -10 -213 l3 -204 188 -3 c103 -1 187 -5 187
-8 0 -4 -10 -35 -22 -71 -58 -169 -247 -273 -418 -229 -82 21 -138 54 -188
111 -44 50 -82 151 -82 219 0 139 114 291 245 328 43 12 50 17 50 38 0 22 -4
25 -36 24 -57 -2 -144 -48 -201 -106 -140 -144 -159 -362 -43 -516 174 -231
522 -224 685 13 41 60 65 137 50 165 -9 18 -9 24 5 34 12 8 17 27 17 60 0 123
-101 270 -227 331 -58 29 -177 45 -203 27z m148 -74 c105 -32 195 -135 207
-238 l5 -47 -153 1 -154 1 -3 140 c-1 76 0 145 2 152 6 14 26 12 96 -9z"/>
</g>
</svg>
