<svg id="catcare-bell" xmlns="http://www.w3.org/2000/svg" width="24" height="24" viewBox="0 0 24 24">
  <g transform="translate(0 24) scale(0.025 -0.025)" fill="#05807b">
<path d="M484 870 c-5 -21 -18 -37 -49 -55 -105 -61 -145 -148 -145 -312 l0
-105 -45 -67 c-25 -37 -45 -72 -45 -79 0 -7 9 -21 20 -32 18 -18 33 -20 136
-20 107 0 116 -1 109 -17 -16 -40 -15 -49 13 -76 58 -56 135 -54 193 4 32 32
38 43 30 58 -13 23 -5 31 31 31 25 0 28 3 28 35 l0 35 -230 0 c-172 0 -230 3
-230 12 0 7 12 25 28 41 26 28 27 32 32 170 6 163 16 189 89 244 38 29 50 33
106 33 35 0 69 2 77 5 8 3 30 -22 57 -65 40 -63 71 -94 71 -70 0 6 -4 10 -10
10 -11 0 -51 62 -67 105 -7 17 -14 56 -18 88 -7 60 -25 79 -25 26 0 -27 -3
-30 -27 -27 -23 2 -28 8 -28 31 1 26 -1 27 -47 27 -46 0 -49 -2 -54 -30z m156
-682 c-2 -52 -80 -70 -125 -28 -14 13 -25 27 -25 32 0 4 34 8 75 8 54 0 75 -4
75 -12z"/>
</g>
</svg>
