<svg id="catcare-billing-entitlements" xmlns="http://www.w3.org/2000/svg" width="24" height="24" viewBox="0 0 24 24">
  <g transform="translate(0 24) scale(0.025 -0.025)" fill="#05807b">
<path d="M153 780 c-57 -34 -58 -41 -56 -314 l2 -250 26 -25 25 -26 336 0 336
0 24 30 24 30 -3 252 c-2 238 -3 253 -23 280 -11 15 -32 31 -45 34 -13 4 -157
7 -319 8 -275 1 -297 0 -327 -19z m629 -67 c22 -19 23 -41 4 -69 -14 -20 -22
-20 -303 -16 -174 2 -293 8 -300 14 -20 16 -15 55 9 72 19 14 65 16 297 16
241 0 277 -2 293 -17z m10 -165 c2 -7 1 -80 -2 -163 l-5 -150 -289 -7 c-186
-5 -296 -4 -307 3 -17 9 -19 24 -19 154 0 79 3 150 6 159 5 14 42 16 309 16
234 0 304 -3 307 -12z"/>
<path d="M279 478 c-12 -40 6 -70 42 -69 131 4 134 5 137 32 3 23 -1 27 -35
32 -37 7 -142 10 -144 5z"/>
</g>
</svg>
