<svg id="catcare-calendar" xmlns="http://www.w3.org/2000/svg" width="24" height="24" viewBox="0 0 24 24">
  <g transform="translate(0 24) scale(0.025 -0.025)" fill="#05807b">
<path d="M290 795 c0 -23 -4 -25 -43 -25 -78 0 -77 3 -77 -317 0 -258 1 -281 18 -296 16 -15 52 -17 299 -17 258 0 281 1 296 18 15 16 17 52 17 299 0 318 1 313 -78 313 -38 0 -42 2 -42 25 0 22 -4 25 -35 25 -31 0 -35 -3 -35 -25 l0 -25 -125 0 -125 0 0 25 c0 22 -4 25 -35 25 -31 0 -35 -3 -35 -25z m0 -120 c0 -22 4 -25 34 -25 28 0 35 4 38 23 3 21 7 22 126 25 l122 3 0 -26 c0 -22 4 -25 34 -25 28 0 35 4 38 23 2 14 11 23 26 25 20 3 22 -1 22 -42 l0 -46 -245 0 -245 0 0 45 c0 41 2 45 25 45 20 0 25 -5 25 -25z m438 -302 l2 -163 -245 0 -245 0 0 158 c0 87 3 162 7 166 4 3 113 5 242 4 l236 -3 3 -162z"/>
<path d="M340 415 c0 -35 0 -35 45 -35 45 0 45 0 45 35 0 35 0 35 -45 35 -45 0 -45 0 -45 -35z"/>
<path d="M540 415 c0 -35 0 -35 45 -35 45 0 45 0 45 35 0 35 0 35 -45 35 -45 0 -45 0 -45 -35z"/>
<path d="M340 295 c0 -35 0 -35 45 -35 45 0 45 0 45 35 0 35 0 35 -45 35 -45 0 -45 0 -45 -35z"/>
  </g>
</svg>
