<svg id="catcare-care-events" xmlns="http://www.w3.org/2000/svg" width="24" height="24" viewBox="0 0 24 24">
  <g transform="translate(0 24) scale(0.025 -0.025)" fill="#05807b">
<path d="M632 888 c-7 -7 -12 -22 -12 -35 0 -23 0 -23 -144 -23 l-145 0 -3 28
c-3 23 -8 27 -33 27 -25 0 -30 -4 -33 -27 -3 -24 -8 -28 -33 -28 -46 0 -94
-24 -120 -61 l-24 -34 2 -294 c3 -323 3 -323 66 -361 30 -19 52 -20 322 -20
272 0 292 1 323 20 18 11 41 34 52 52 19 31 20 51 20 311 0 301 -2 313 -56
356 -14 11 -48 24 -75 27 -43 6 -49 10 -49 30 0 13 -9 28 -19 34 -24 13 -24
13 -39 -2z m150 -147 c9 -9 18 -34 20 -56 l3 -40 -328 -3 -327 -2 0 44 c0 52
24 76 77 76 28 0 33 -4 33 -24 0 -52 66 -60 72 -8 l3 27 143 3 142 3 0 -30 c0
-22 6 -32 22 -37 24 -7 48 16 48 47 0 32 59 32 92 0z m18 -371 c0 -187 -1
-201 -20 -220 -19 -19 -33 -20 -305 -20 -272 0 -286 1 -305 20 -19 19 -20 33
-20 220 l0 200 325 0 325 0 0 -200z"/>
<path d="M520 405 l-84 -85 -37 36 c-37 36 -70 41 -82 10 -5 -14 108 -136 127
-136 6 0 20 12 31 28 10 15 57 65 102 111 80 80 83 85 67 102 -10 11 -22 19
-28 19 -6 0 -49 -38 -96 -85z"/>
</g>
</svg>
