<svg id="catcare-care-plan-metric" xmlns="http://www.w3.org/2000/svg" width="24" height="24" viewBox="0 0 24 24">
  <g transform="translate(0 24) scale(0.025 -0.025)" fill="#05807b">
<path d="M343 835 c-24 -30 -34 -35 -71 -35 -35 0 -49 -6 -73 -29 l-29 -29 0
-297 0 -297 29 -29 29 -29 252 0 252 0 29 29 29 29 0 286 c0 157 -4 296 -10
310 -11 30 -57 56 -100 56 -22 0 -39 9 -61 35 l-31 35 -109 0 -108 0 -28 -35z
m221 -38 c11 -8 17 -23 14 -38 -3 -23 -6 -24 -95 -27 l-93 -3 0 29 c0 15 5 33
12 40 16 16 139 16 162 -1z m-250 -63 c9 -3 16 -16 16 -28 0 -41 17 -46 147
-46 132 0 127 -2 172 60 17 22 21 23 45 12 l26 -12 0 -274 c0 -221 -3 -276
-14 -285 -10 -8 -76 -10 -237 -6 -122 3 -225 8 -228 11 -7 7 -8 299 -1 449 5
106 6 109 30 116 14 4 26 7 27 8 1 1 8 -2 17 -5z"/>
<path d="M353 510 c-26 -11 -30 -42 -8 -60 18 -15 126 -2 132 16 3 9 -85 56
-99 53 -2 0 -13 -4 -25 -9z"/>
<path d="M560 489 c-42 -26 -52 -38 -46 -61 2 -9 -9 -29 -25 -44 -24 -23 -37
-27 -91 -28 -52 -1 -63 -4 -66 -19 -7 -34 17 -47 83 -47 56 0 67 4 104 33 34
27 40 37 36 60 -3 19 0 27 10 27 23 0 65 43 67 70 4 33 -26 37 -72 9z"/>
</g>
</svg>
