<svg id="catcare-care-plan" xmlns="http://www.w3.org/2000/svg" width="24" height="24" viewBox="0 0 24 24">
  <g transform="translate(0 24) scale(0.025 -0.025)" fill="#05807b">
<path d="M417 893 c-15 -2 -42 -20 -61 -39 -26 -27 -41 -34 -70 -34 -49 0 -98
-22 -124 -55 -21 -27 -22 -35 -22 -329 0 -298 0 -301 23 -329 33 -42 78 -47
352 -40 l240 6 33 33 32 32 0 300 c0 288 -1 300 -21 326 -29 37 -71 56 -123
56 -38 0 -48 4 -62 26 -32 48 -93 63 -197 47z m139 -78 c15 -20 19 -65 7 -66
-5 0 -44 -1 -88 -2 -80 -2 -80 -2 -83 25 -2 17 4 34 19 49 18 18 30 21 77 17
38 -3 59 -11 68 -23z m-226 -95 c0 -32 32 -40 153 -40 120 0 133 5 150 53 5
13 18 17 51 17 77 0 76 6 76 -306 0 -171 -4 -283 -10 -295 -10 -18 -24 -19
-270 -19 -246 0 -260 1 -270 19 -12 24 -14 560 -1 580 11 18 80 30 104 19 9
-5 17 -17 17 -28z"/>
<path d="M446 536 c-46 -51 -61 -56 -69 -26 -6 23 -45 27 -53 6 -7 -19 20 -66
53 -90 l26 -19 51 53 c48 51 54 54 109 58 46 4 57 8 57 22 0 13 -11 20 -37 24
-21 4 -51 9 -66 12 -24 5 -35 -1 -71 -40z"/>
<path d="M442 338 l-43 -43 -22 28 c-26 31 -57 36 -57 10 0 -23 31 -70 58 -89
27 -18 43 -11 81 37 32 39 33 39 101 39 68 0 70 1 70 25 0 19 -5 25 -22 25
-13 0 -45 3 -73 6 -49 5 -51 4 -93 -38z"/>
</g>
</svg>
