<svg id="catcare-cat-count" xmlns="http://www.w3.org/2000/svg" width="24" height="24" viewBox="0 0 24 24">
  <g transform="translate(0 24) scale(0.025 -0.025)" fill="#05807b">
<path d="M178 883 c-9 -2 -27 -21 -40 -41 -18 -29 -23 -57 -29 -146 -4 -73
-14 -131 -28 -170 -26 -74 -27 -130 -1 -199 37 -99 121 -175 240 -217 81 -29
224 -32 312 -6 112 33 208 116 249 216 22 56 18 185 -9 239 -18 36 -22 63 -22
140 -1 109 -18 157 -62 179 -34 16 -73 0 -137 -55 -41 -34 -43 -35 -86 -24
-56 14 -114 14 -170 0 -44 -11 -45 -11 -92 31 -44 39 -84 62 -101 59 -4 -1
-15 -3 -24 -6z m109 -116 l42 -41 51 12 c66 15 148 15 204 0 l44 -12 52 47
c88 79 114 58 113 -88 -1 -69 3 -100 19 -134 70 -157 -6 -317 -183 -381 -73
-27 -223 -28 -295 -1 -117 42 -183 114 -206 223 -10 48 -9 61 12 118 16 45 24
99 29 176 9 160 25 171 118 81z"/>
<path d="M312 514 c-29 -20 -28 -50 4 -70 24 -17 26 -16 51 9 25 25 26 27 9
51 -19 30 -33 32 -64 10z"/>
<path d="M598 519 c-25 -14 -24 -65 2 -79 42 -22 86 35 54 71 -19 21 -31 23
-56 8z"/>
<path d="M457 423 c-15 -4 -17 -11 -12 -44 l7 -39 -36 0 c-29 0 -36 -4 -36
-20 0 -32 45 -48 77 -28 23 14 28 14 54 0 24 -14 31 -14 53 -2 14 7 26 22 26
32 0 16 -5 19 -28 13 -34 -7 -63 18 -44 37 19 19 14 45 -10 52 -13 3 -25 5
-28 5 -3 -1 -13 -3 -23 -6z"/>
</g>
</svg>
