<svg id="catcare-cat-profile" xmlns="http://www.w3.org/2000/svg" width="24" height="24" viewBox="0 0 24 24">
  <g transform="translate(0 24) scale(0.025 -0.025)" fill="#05807b">
<path d="M174 829 c-16 -17 -20 -42 -24 -138 -4 -78 -11 -129 -23 -155 -9 -21
-17 -50 -17 -65 0 -15 -8 -31 -20 -39 -32 -20 -24 -49 13 -43 4 0 7 -6 7 -14
0 -8 -6 -15 -14 -15 -16 0 -29 -27 -20 -42 3 -5 17 -7 30 -4 30 8 33 -14 4
-32 -22 -13 -24 -20 -12 -39 6 -10 15 -10 38 -1 28 10 33 8 68 -24 35 -33 78
-58 149 -87 36 -14 218 -14 254 0 68 28 116 55 154 87 35 30 44 34 61 23 33
-21 54 13 23 39 -22 18 -18 30 9 30 25 0 36 15 29 38 -3 6 -11 12 -19 12 -8 0
-14 7 -14 15 0 8 6 15 14 15 26 0 30 23 8 41 -15 11 -22 28 -22 51 0 19 -4 38
-8 43 -19 22 -32 97 -32 182 0 106 -19 143 -71 143 -27 0 -92 -36 -141 -77
-11 -10 -47 -15 -123 -16 -93 -2 -108 0 -123 17 -29 32 -105 76 -132 76 -15 0
-35 -9 -46 -21z m576 -151 c0 -78 5 -114 21 -159 20 -55 20 -97 0 -85 -12 8
-44 -31 -36 -43 3 -6 15 -11 26 -11 10 0 19 -5 19 -11 0 -6 -7 -8 -16 -5 -19
7 -44 -10 -44 -30 0 -8 7 -14 15 -14 21 0 18 -11 -13 -45 -42 -45 -103 -73
-192 -86 -118 -18 -209 8 -287 84 -37 35 -41 47 -15 47 24 0 32 8 25 26 -3 8
-19 14 -39 14 -19 0 -34 5 -34 10 0 6 8 10 18 10 10 0 23 5 30 12 16 16 -4 38
-35 38 -18 0 -24 4 -20 14 3 8 9 32 13 53 4 21 10 43 15 49 5 5 10 59 11 119
4 132 11 138 84 69 l49 -46 133 0 134 -1 41 40 c46 44 77 64 89 57 5 -3 8 -51
8 -106z"/>
<path d="M316 508 c-35 -50 0 -109 50 -86 33 15 36 58 7 91 -21 23 -39 22 -57
-5z"/>
<path d="M591 513 c-29 -19 -25 -70 6 -90 20 -14 24 -13 48 11 24 24 25 27 11
55 -19 36 -38 43 -65 24z"/>
<path d="M448 419 c-20 -11 -24 -44 -8 -54 18 -11 2 -23 -24 -18 -29 6 -41
-10 -26 -36 14 -27 42 -34 74 -20 20 10 29 10 38 1 17 -17 43 -15 61 6 27 30
22 52 -12 52 -28 0 -29 2 -24 34 4 29 2 34 -18 39 -32 9 -41 8 -61 -4z"/>
</g>
</svg>
