<svg id="catcare-credit-pack-30" xmlns="http://www.w3.org/2000/svg" width="24" height="24" viewBox="0 0 24 24">
  <g transform="translate(0 24) scale(0.025 -0.025)" fill="#05807b">
<path d="M309 858 c-11 -5 -19 -17 -19 -31 0 -33 -16 -43 -74 -50 -26 -2 -60
-14 -75 -24 -25 -20 -26 -23 -34 -174 -4 -85 -6 -216 -5 -292 l3 -139 33 -29
32 -29 316 0 315 0 24 26 c14 15 27 41 31 58 3 18 4 148 2 289 -3 246 -4 257
-24 278 -14 13 -39 23 -70 26 -60 7 -70 14 -78 58 -4 19 -12 35 -19 36 -74 5
-343 2 -358 -3z m316 -68 c12 -10 16 -28 14 -64 -3 -57 10 -69 44 -38 12 10
32 22 44 25 48 11 51 -1 60 -268 5 -137 6 -258 1 -267 -8 -16 -35 -18 -291
-20 -214 -2 -287 0 -304 10 -23 12 -23 16 -22 185 1 234 10 345 29 357 8 5 29
10 46 10 48 0 84 -66 53 -97 -24 -24 33 -37 176 -41 114 -3 148 -1 180 12 l39
17 -35 29 c-20 17 -40 27 -49 23 -8 -3 -65 -8 -126 -11 -111 -4 -112 -4 -128
21 -29 43 -31 92 -7 116 20 20 30 21 141 18 79 -3 125 -9 135 -17z"/>
<path d="M420 469 c-14 -4 -37 -11 -52 -14 -22 -4 -28 -11 -28 -30 0 -20 6
-27 30 -31 28 -6 43 -31 66 -111 9 -33 55 -2 59 40 1 12 3 28 4 35 0 7 16 22
35 33 45 26 53 49 26 71 -24 19 -95 23 -140 7z"/>
</g>
</svg>
