<svg id="catcare-credit-pack-100" xmlns="http://www.w3.org/2000/svg" width="24" height="24" viewBox="0 0 24 24">
  <g transform="translate(0 24) scale(0.025 -0.025)" fill="#05807b">
<path d="M596 858 c-13 -7 -63 -9 -147 -6 -139 6 -152 3 -163 -44 -6 -26 -10
-28 -60 -28 -49 0 -57 -3 -85 -35 l-31 -36 0 -262 c0 -229 2 -266 18 -297 29
-59 36 -60 365 -58 l299 3 29 33 29 32 0 266 c0 250 -1 269 -20 299 -22 35
-55 53 -110 57 -28 2 -36 8 -38 25 -2 13 -16 32 -32 43 -32 23 -29 23 -54 8z
m8 -74 c11 -4 16 -19 16 -44 0 -49 21 -68 52 -46 27 19 72 21 86 3 16 -19 26
-490 12 -517 -11 -21 -17 -21 -286 -19 -321 2 -303 -5 -299 114 1 39 4 147 5
240 3 187 9 206 58 197 15 -3 36 -11 47 -18 11 -8 27 -14 37 -14 15 0 17 8 15
48 l-2 47 115 6 c63 3 118 6 122 7 3 1 13 -1 22 -4z"/>
<path d="M530 638 c-30 -5 -84 -7 -119 -5 -70 5 -116 -6 -125 -30 -9 -22 8
-38 56 -53 50 -16 182 -17 201 -2 6 5 27 13 45 17 40 8 56 50 27 72 -11 7 -21
12 -24 12 -3 -1 -31 -6 -61 -11z"/>
</g>
</svg>
