<svg id="catcare-credit-pack-15" xmlns="http://www.w3.org/2000/svg" width="24" height="24" viewBox="0 0 24 24">
  <g transform="translate(0 24) scale(0.025 -0.025)" fill="#05807b">
<path d="M274 856 c-36 -16 -59 -63 -51 -105 8 -36 -5 -47 -63 -54 -61 -8 -70
-24 -70 -129 0 -76 3 -91 20 -105 18 -16 20 -30 20 -164 0 -81 3 -155 6 -164
16 -40 50 -45 343 -45 l279 0 31 26 31 26 0 152 c0 142 1 154 21 172 19 17 20
28 17 111 -2 56 -8 97 -15 104 -7 7 -30 13 -51 14 -55 1 -62 9 -56 63 5 50 -9
77 -53 101 -51 27 -131 -1 -182 -62 -19 -23 -38 -21 -56 6 -19 29 -85 67 -116
67 -13 -1 -38 -7 -55 -14z m374 -58 c7 -7 12 -27 12 -45 0 -38 -21 -53 -75
-53 -54 0 -57 25 -7 72 45 41 52 44 70 26z m-265 -29 c43 -35 48 -66 13 -75
-40 -10 -103 32 -100 66 1 8 2 21 3 28 2 22 46 13 84 -19z m177 27 c0 -3 -4
-8 -10 -11 -5 -3 -10 -1 -10 4 0 6 5 11 10 11 6 0 10 -2 10 -4z m-132 -219
l-3 -42 -115 -5 c-155 -7 -177 4 -150 74 9 25 12 25 122 28 140 4 150 0 146
-55z m344 51 c22 -18 31 -74 14 -91 -16 -15 -253 -14 -269 2 -5 5 -6 27 -2 50
l7 40 111 4 c62 1 115 4 118 5 3 1 12 -4 21 -10z m-355 -176 c13 -8 22 -270 9
-290 -5 -8 -39 -12 -106 -12 -85 0 -101 3 -109 18 -5 9 -8 76 -6 147 l2 130
94 6 c52 3 96 6 99 7 3 1 10 -2 17 -6z m321 -141 c2 -90 -1 -138 -9 -147 -16
-20 -192 -20 -208 0 -8 10 -10 52 -6 143 3 70 5 132 5 136 0 4 48 6 108 5
l107 -3 3 -134z m-261 77 c-3 -7 -5 -2 -5 12 0 14 2 19 5 13 2 -7 2 -19 0 -25z"/>
</g>
</svg>
