<svg id="catcare-dashboard" xmlns="http://www.w3.org/2000/svg" width="24" height="24" viewBox="0 0 24 24">
  <g transform="translate(0 24) scale(0.025 -0.025)" fill="#05807b">
<path d="M420 849 c-19 -12 -69 -52 -110 -88 -41 -37 -108 -93 -147 -124 l-73
-58 0 -218 c0 -218 0 -218 25 -245 24 -25 27 -26 149 -26 79 0 127 4 132 11 3
6 9 59 11 117 3 59 10 113 16 120 5 6 31 12 58 12 63 0 69 -12 69 -137 0 -64
4 -103 12 -111 8 -8 52 -12 130 -12 116 0 120 1 143 26 25 27 25 28 25 241 l0
215 -28 26 c-15 15 -76 68 -136 117 -59 50 -123 103 -141 118 -46 38 -91 44
-135 16z m91 -65 c13 -14 53 -49 89 -77 36 -28 84 -67 106 -86 23 -20 53 -46
68 -58 l26 -21 0 -180 c0 -99 -3 -187 -6 -196 -5 -13 -23 -16 -89 -16 -54 0
-86 4 -93 13 -5 6 -10 59 -10 116 0 59 -5 108 -11 114 -14 14 -218 14 -233 -1
-6 -6 -10 -50 -9 -112 1 -66 -2 -107 -10 -116 -8 -10 -34 -14 -85 -14 -107 0
-105 -5 -102 213 l3 182 110 88 c60 48 130 107 155 132 25 25 50 45 56 45 6 0
21 -12 35 -26z"/>
</g>
</svg>
