<svg id="catcare-feeding-routine" xmlns="http://www.w3.org/2000/svg" width="24" height="24" viewBox="0 0 24 24">
  <g transform="translate(0 24) scale(0.025 -0.025)" fill="#05807b">
<path d="M198 739 c-60 -31 -81 -77 -118 -263 -24 -121 -11 -159 73 -212 136
-87 535 -85 668 3 46 30 79 87 79 135 0 49 -57 259 -79 288 -24 33 -89 70
-123 70 -16 0 -41 -12 -61 -30 -19 -16 -46 -30 -60 -30 -14 0 -39 -11 -55 -25
-17 -14 -35 -25 -41 -25 -7 0 -29 11 -49 25 -20 14 -44 25 -52 25 -9 0 -29 14
-45 30 -35 36 -81 39 -137 9z m96 -42 c17 -12 15 -15 -17 -40 -39 -30 -57 -33
-75 -15 -19 19 -14 36 16 52 34 19 53 20 76 3z m455 -8 l33 -20 -21 -23 c-12
-13 -38 -28 -59 -34 -52 -16 -182 -35 -189 -28 -8 7 44 56 60 57 7 1 29 0 49
-1 33 -1 38 2 44 27 4 15 9 31 11 36 7 13 37 7 72 -14z m-344 -57 c6 -4 19
-18 30 -31 l20 -24 -50 7 c-27 4 -63 9 -80 13 l-29 5 23 19 c23 19 68 25 86
11z m-96 -88 c118 -23 321 -16 406 15 33 12 67 24 76 27 12 4 20 -14 38 -96
22 -99 22 -101 4 -133 -37 -65 -167 -102 -353 -102 -106 1 -220 18 -275 41
-81 34 -93 79 -59 219 23 92 20 88 51 66 16 -11 66 -28 112 -37z"/>
</g>
</svg>
