<?xml version="1.0" standalone="no"?>
<!DOCTYPE svg PUBLIC "-//W3C//DTD SVG 20010904//EN"
 "http://www.w3.org/TR/2001/REC-SVG-20010904/DTD/svg10.dtd">
<svg version="1.0" xmlns="http://www.w3.org/2000/svg"
 width="52.191455pt" height="62.573676pt" viewBox="0 0 52.191455 62.573676"
 preserveAspectRatio="xMidYMid meet">
<metadata>
Created by potrace 1.16, written by Peter Selinger 2001-2019
</metadata>
<g transform="translate(-24.369624,78.944787) scale(0.100000,-0.100000)"
fill="#07847f" stroke="none">
<path d="M308 779 c-14 -7 -18 -23 -18 -62 0 -29 5 -58 11 -64 8 -8 5 -14 -11
-23 -39 -21 -47 -63 -46 -232 1 -207 -3 -202 168 -206 86 -3 128 -8 144 -19
29 -19 51 -12 131 41 71 47 90 79 72 119 -15 33 -60 53 -87 38 -12 -6 -23 -11
-26 -11 -3 0 -6 48 -6 106 0 108 -8 138 -42 163 -14 9 -17 16 -9 24 6 6 11 35
11 64 0 41 -4 54 -19 63 -25 13 -250 13 -273 -1z m242 -18 c21 -6 25 -13 25
-46 0 -22 -5 -40 -12 -42 -8 -3 -13 5 -13 21 0 35 -18 33 -22 -1 -2 -16 -7
-28 -13 -28 -5 0 -11 12 -13 28 -4 37 -22 34 -22 -4 0 -20 -4 -29 -12 -26 -7
2 -13 14 -13 27 0 13 -6 25 -13 28 -8 2 -12 -7 -12 -28 0 -21 -4 -30 -12 -28
-7 3 -13 15 -13 28 0 13 -6 25 -13 28 -10 3 -13 -3 -10 -21 1 -15 -1 -27 -7
-29 -5 -2 -12 8 -13 22 -6 40 -22 48 -22 11 0 -46 -24 -35 -28 12 -3 31 1 39
20 46 27 11 181 12 218 2z m10 -123 c0 -3 14 -20 30 -36 37 -38 38 -49 3 -64
-33 -13 -231 -16 -285 -5 -47 10 -49 28 -5 76 l32 36 113 0 c61 0 112 -3 112
-7z m-115 -133 c61 0 125 3 143 7 l32 8 0 -90 0 -89 -37 -26 c-35 -23 -46 -25
-156 -25 -65 0 -127 5 -138 10 -17 10 -19 22 -19 115 l0 105 33 -8 c17 -4 82
-7 142 -7z m283 -167 c20 -20 13 -55 -14 -77 -15 -12 -29 -21 -33 -21 -3 0
-17 17 -30 37 l-24 37 23 18 c26 21 61 23 78 6z m-93 -75 l25 -38 -22 -17
c-44 -34 -98 -18 -98 28 0 20 42 63 62 64 4 0 19 -17 33 -37z m-208 3 l93 -1
0 -29 0 -29 -109 5 c-114 5 -141 14 -141 49 0 15 5 17 32 12 17 -3 73 -7 125
-7z M420 436 c0 -21 -5 -26 -25 -26 -18 0 -25 -5 -25 -20 0 -15 7 -20 25 -20
20 0 25 -5 25 -26 0 -21 4 -25 23 -22 14 2 23 11 25 25 2 14 11 23 25 25 12 2
22 10 22 18 0 8 -10 16 -22 18 -14 2 -23 11 -25 25 -2 14 -11 23 -25 25 -19 3
-23 -1 -23 -22z"/>
</g>
</svg>
