<?xml version="1.0" standalone="no"?>
<!DOCTYPE svg PUBLIC "-//W3C//DTD SVG 20010904//EN"
 "http://www.w3.org/TR/2001/REC-SVG-20010904/DTD/svg10.dtd">
<svg version="1.0" xmlns="http://www.w3.org/2000/svg"
 width="49.819961pt" height="56.115281pt" viewBox="0 0 49.819961 56.115281"
 preserveAspectRatio="xMidYMid meet">
<metadata>
Created by potrace 1.16, written by Peter Selinger 2001-2019
</metadata>
<g transform="translate(-24.982551,75.842288) scale(0.100000,-0.100000)"
fill="#07847f" stroke="none">
<path d="M311 750 c-22 -10 -23 -14 -19 -75 5 -58 3 -66 -18 -86 -23 -22 -24
-26 -24 -191 0 -210 -13 -196 196 -199 l151 -2 64 34 c79 42 101 76 79 117
-19 33 -65 41 -109 18 -16 -9 -32 -16 -36 -16 -3 0 -5 47 -5 105 0 102 -1 105
-30 139 -18 20 -26 37 -20 41 13 8 13 85 0 105 -11 18 -191 26 -229 10z m210
-26 c12 -7 11 -61 -1 -69 -6 -4 -10 5 -10 19 0 14 -4 26 -10 26 -5 0 -10 -11
-10 -24 0 -14 -4 -28 -10 -31 -6 -4 -10 5 -10 19 0 14 -4 26 -10 26 -5 0 -10
-11 -10 -25 0 -14 -4 -25 -10 -25 -5 0 -10 11 -10 25 0 14 -4 25 -10 25 -5 0
-10 -11 -10 -25 0 -14 -4 -25 -10 -25 -5 0 -10 11 -10 24 0 14 -4 28 -10 31
-6 4 -10 -7 -10 -24 0 -17 -4 -31 -10 -31 -5 0 -10 14 -10 30 0 17 -4 30 -10
30 -5 0 -10 -11 -10 -25 0 -14 -4 -25 -10 -25 -5 0 -10 18 -10 39 0 37 2 40
33 44 37 6 165 -1 178 -9z m17 -140 c39 -42 40 -52 5 -61 -36 -9 -210 -9 -245
0 -36 9 -35 20 3 65 l31 37 86 -3 c84 -3 88 -5 120 -38z m-60 -89 l92 6 0 -81
c0 -76 -2 -83 -27 -105 -26 -22 -37 -24 -128 -25 -153 0 -145 -6 -145 115 l0
102 58 -9 c31 -6 99 -7 150 -3z m242 -155 c8 -14 8 -26 0 -40 -9 -17 -40 -40
-54 -40 -6 0 -49 70 -45 74 37 30 85 33 99 6z m-96 -56 c9 -20 16 -38 14 -39
-14 -11 -50 -25 -67 -25 -45 0 -47 64 -3 89 28 17 37 13 56 -25z m-118 -17 c1
-1 5 -12 8 -24 7 -23 7 -23 -103 -23 -86 0 -113 3 -125 16 -35 34 -20 39 101
36 65 -2 119 -5 119 -5z M407 454 c-4 -4 -7 -15 -7 -25 0 -11 -9 -19 -22 -21
-13 -2 -23 -10 -23 -18 0 -8 10 -16 23 -18 16 -3 22 -10 22 -28 0 -33 34 -29
38 4 2 14 10 22 23 22 12 0 19 7 19 20 0 13 -7 20 -19 20 -12 0 -21 8 -23 22
-3 22 -19 33 -31 22z"/>
</g>
</svg>
