<?xml version="1.0" standalone="no"?>
<!DOCTYPE svg PUBLIC "-//W3C//DTD SVG 20010904//EN"
 "http://www.w3.org/TR/2001/REC-SVG-20010904/DTD/svg10.dtd">
<svg version="1.0" xmlns="http://www.w3.org/2000/svg"
 width="37.000000pt" height="60.792031pt" viewBox="0 0 37.000000 60.792031"
 preserveAspectRatio="xMidYMid meet">
<metadata>
Created by potrace 1.16, written by Peter Selinger 2001-2019
</metadata>
<g transform="translate(-16.000000,80.305094) scale(0.100000,-0.100000)"
fill="#07847f" stroke="none">
<path d="M254 797 c-19 -11 -18 -46 1 -53 10 -4 15 -20 15 -45 0 -37 -1 -39
-32 -39 -69 0 -78 -24 -78 -213 0 -139 2 -157 20 -180 11 -14 20 -32 20 -41 0
-23 36 -39 60 -26 11 6 20 17 20 25 0 12 15 15 70 15 55 0 70 -3 70 -15 0 -8
9 -19 20 -25 26 -14 60 3 60 29 0 10 7 24 15 31 12 10 15 44 15 190 0 198 -3
205 -69 212 -31 3 -34 6 -35 36 -1 23 5 37 16 43 21 12 24 47 4 55 -23 9 -176
10 -192 1z m186 -27 c0 -6 -37 -10 -90 -10 -53 0 -90 4 -90 10 0 6 37 10 90
10 53 0 90 -4 90 -10z m-40 -70 l0 -40 -50 0 -50 0 0 40 0 40 50 0 50 0 0 -40z
m91 -70 c18 -10 19 -23 19 -180 0 -157 -1 -170 -19 -180 -28 -15 -274 -13
-289 2 -17 17 -17 339 0 356 15 15 261 17 289 2z m-231 -400 c0 -5 -9 -10 -20
-10 -11 0 -20 5 -20 10 0 6 9 10 20 10 11 0 20 -4 20 -10z m220 0 c0 -5 -9
-10 -20 -10 -11 0 -20 5 -20 10 0 6 9 10 20 10 11 0 20 -4 20 -10z M335 569
c-10 -26 -1 -244 10 -244 14 0 19 235 6 248 -7 7 -12 5 -16 -4z M254 557 c-2
-7 -3 -62 -2 -123 4 -151 22 -142 26 14 2 81 -1 122 -8 122 -6 0 -13 -6 -16
-13z M414 557 c-2 -7 -3 -62 -2 -123 4 -151 22 -142 26 14 2 81 -1 122 -8 122
-6 0 -13 -6 -16 -13z"/>
</g>
</svg>
