<?xml version="1.0" standalone="no"?>
<!DOCTYPE svg PUBLIC "-//W3C//DTD SVG 20010904//EN"
 "http://www.w3.org/TR/2001/REC-SVG-20010904/DTD/svg10.dtd">
<svg version="1.0" xmlns="http://www.w3.org/2000/svg"
 width="62.056981pt" height="54.192038pt" viewBox="0 0 62.056981 54.192038"
 preserveAspectRatio="xMidYMid meet">
<metadata>
Created by potrace 1.16, written by Peter Selinger 2001-2019
</metadata>
<g transform="translate(-15.943019,75.812968) scale(0.100000,-0.100000)"
fill="#07847f" stroke="none">
<path d="M342 745 c-79 -18 -147 -57 -167 -95 -19 -38 -21 -292 -2 -330 34
-67 146 -105 307 -104 134 2 214 24 267 76 l33 32 0 162 0 162 -34 30 c-79 69
-263 100 -404 67z m213 -15 c179 -26 258 -118 157 -185 -154 -101 -522 -54
-522 67 0 54 79 100 204 118 73 11 83 11 161 0z m-299 -224 c119 -59 388 -46
478 25 l26 20 0 -103 c0 -117 -8 -136 -68 -167 -61 -31 -122 -43 -215 -43
-129 1 -220 25 -268 73 -16 16 -19 33 -19 131 0 105 1 110 18 96 9 -9 31 -23
48 -32z M391 710 c-72 -11 -133 -35 -161 -65 -20 -21 -22 -28 -12 -49 15 -34
46 -52 122 -72 147 -38 369 3 386 72 4 15 3 34 -3 43 -17 27 -94 59 -170 70
-81 12 -84 12 -162 1z m191 -21 c96 -21 146 -56 132 -94 -9 -24 -84 -54 -165
-66 -121 -18 -298 19 -316 67 -27 71 185 128 349 93z M452 640 c-80 -19 -61
-55 38 -71 95 -15 154 17 114 62 -18 20 -88 24 -152 9z m134 -15 c19 -15 19
-15 0 -30 -26 -19 -50 -19 -67 1 -11 14 -10 18 6 30 24 18 37 18 61 -1z m-90
-19 c2 -22 -1 -23 -33 -16 -40 10 -51 18 -32 24 8 2 21 7 29 9 29 10 35 7 36
-17z M396 421 c-3 -4 -8 -33 -12 -62 -8 -67 5 -81 80 -87 44 -4 57 -1 80 20
25 21 27 28 21 69 -10 66 -18 76 -50 61 -32 -15 -72 -16 -80 -2 -8 12 -32 13
-39 1z m34 -21 c0 -14 77 -13 86 1 9 16 21 -1 28 -43 6 -31 3 -39 -16 -52 -27
-19 -88 -21 -112 -3 -15 11 -17 21 -11 60 4 26 11 47 16 47 5 0 9 -4 9 -10z"/>
</g>
</svg>
