<?xml version="1.0" standalone="no"?>
<!DOCTYPE svg PUBLIC "-//W3C//DTD SVG 20010904//EN"
 "http://www.w3.org/TR/2001/REC-SVG-20010904/DTD/svg10.dtd">
<svg version="1.0" xmlns="http://www.w3.org/2000/svg"
 width="52.644656pt" height="53.569353pt" viewBox="0 0 52.644656 53.569353"
 preserveAspectRatio="xMidYMid meet">
<metadata>
Created by potrace 1.16, written by Peter Selinger 2001-2019
</metadata>
<g transform="translate(-21.105426,77.000000) scale(0.100000,-0.100000)"
fill="#07847f" stroke="none">
<path d="M387 736 c-20 -20 -37 -49 -41 -69 -5 -28 -12 -36 -37 -41 -64 -13
-112 -95 -94 -163 9 -36 70 -93 100 -93 18 0 25 -7 30 -30 15 -67 89 -117 155
-104 41 9 79 44 94 88 11 31 21 41 50 51 49 17 73 40 87 82 23 70 -14 143 -86
167 -31 11 -41 20 -46 43 -14 70 -57 103 -133 103 -38 0 -51 -5 -79 -34z m133
-1 c33 -17 60 -61 60 -100 0 -19 5 -25 23 -25 12 0 37 -9 55 -20 85 -52 60
-181 -39 -196 -30 -5 -39 -11 -39 -26 0 -28 -26 -74 -52 -92 -55 -39 -142 2
-157 74 -6 29 -12 36 -44 43 -50 12 -87 57 -87 107 0 48 30 86 84 104 35 12
41 19 50 57 8 32 20 49 45 66 40 27 61 29 101 8z M457 574 c-9 -10 2 -24 19
-24 8 0 14 7 14 15 0 15 -21 21 -33 9z M395 510 c-7 -12 2 -30 16 -30 12 0 12
27 0 35 -5 3 -12 1 -16 -5z M524 509 c-10 -17 13 -36 27 -22 12 12 4 33 -11
33 -5 0 -12 -5 -16 -11z M460 429 c0 -24 23 -21 28 4 2 10 -3 17 -12 17 -10 0
-16 -9 -16 -21z"/>
</g>
</svg>
