<?xml version="1.0" standalone="no"?>
<!DOCTYPE svg PUBLIC "-//W3C//DTD SVG 20010904//EN"
 "http://www.w3.org/TR/2001/REC-SVG-20010904/DTD/svg10.dtd">
<svg version="1.0" xmlns="http://www.w3.org/2000/svg"
 width="62.816373pt" height="47.708479pt" viewBox="0 0 62.816373 47.708479"
 preserveAspectRatio="xMidYMid meet">
<metadata>
Created by potrace 1.16, written by Peter Selinger 2001-2019
</metadata>
<g transform="translate(-13.024422,73.917302) scale(0.100000,-0.100000)"
fill="#07847f" stroke="none">
<path d="M410 723 c-14 -10 -35 -16 -47 -15 -15 2 -37 -12 -73 -49 -28 -29
-65 -59 -83 -68 -28 -14 -33 -25 -54 -106 -12 -49 -23 -102 -23 -117 0 -61 98
-98 280 -105 193 -8 341 31 348 91 2 14 -7 69 -19 122 -19 84 -26 98 -51 114
-16 10 -36 27 -44 39 -8 11 -21 21 -28 21 -8 0 -21 11 -30 25 -10 16 -26 25
-41 25 -14 0 -34 9 -45 20 -25 25 -58 26 -90 3z m71 -13 c10 -6 19 -17 19 -24
0 -9 11 -13 33 -12 26 1 33 -3 35 -21 2 -17 10 -23 27 -23 25 0 46 -26 38 -48
-3 -7 3 -11 14 -10 42 6 24 -18 -27 -35 -94 -32 -320 -23 -394 15 -14 8 -15
12 -6 21 10 9 14 9 17 0 7 -20 23 -15 23 7 0 10 6 23 13 27 8 4 16 16 20 26 3
9 13 17 22 17 8 0 15 6 15 14 0 19 28 28 50 16 25 -13 30 -13 30 5 0 13 26 34
43 35 5 0 17 -5 28 -10z m-122 -211 c107 -14 242 -1 302 29 l38 19 22 -94 c20
-88 21 -95 5 -112 -42 -46 -250 -73 -397 -52 -84 13 -160 39 -174 60 -3 7 3
54 16 105 l22 93 37 -18 c21 -10 79 -23 129 -30z M490 636 c0 -9 7 -16 16 -16
9 0 14 5 12 12 -6 18 -28 21 -28 4z M412 628 c6 -18 28 -21 28 -4 0 9 -7 16
-16 16 -9 0 -14 -5 -12 -12z M317 616 c-8 -21 3 -27 19 -11 18 17 18 25 0 25
-8 0 -16 -6 -19 -14z M542 584 c2 -11 8 -18 13 -16 15 3 12 25 -3 30 -9 3 -13
-2 -10 -14z M454 579 c-10 -17 13 -36 27 -22 12 12 4 33 -11 33 -5 0 -12 -5
-16 -11z M362 563 c2 -10 8 -18 13 -18 5 0 11 8 13 18 2 10 -3 17 -13 17 -10
0 -15 -7 -13 -17z"/>
</g>
</svg>
