<?xml version="1.0" standalone="no"?>
<!DOCTYPE svg PUBLIC "-//W3C//DTD SVG 20010904//EN"
 "http://www.w3.org/TR/2001/REC-SVG-20010904/DTD/svg10.dtd">
<svg version="1.0" xmlns="http://www.w3.org/2000/svg"
 width="41.009098pt" height="63.035164pt" viewBox="0 0 41.009098 63.035164"
 preserveAspectRatio="xMidYMid meet">
<metadata>
Created by potrace 1.16, written by Peter Selinger 2001-2019
</metadata>
<g transform="translate(-32.999814,78.970753) scale(0.100000,-0.100000)"
fill="#07847f" stroke="none">
<path d="M398 779 c-14 -8 -18 -23 -18 -69 0 -32 5 -62 10 -65 7 -4 -4 -23
-25 -46 l-35 -39 0 -175 c0 -234 -3 -231 240 -223 180 5 170 -7 170 222 l0
180 -32 33 c-28 29 -31 36 -20 53 6 11 12 40 12 64 0 68 -18 76 -165 76 -66 0
-128 -5 -137 -11z m220 -15 l52 -7 0 -48 c0 -52 -16 -68 -22 -21 -2 15 -7 27
-13 27 -5 0 -11 -12 -13 -27 -2 -16 -7 -28 -12 -28 -5 0 -10 12 -12 28 -4 32
-23 27 -22 -5 2 -33 -24 -28 -28 5 -2 15 -7 26 -13 24 -5 -2 -9 -14 -7 -27 2
-17 -1 -25 -12 -25 -10 0 -16 9 -16 24 0 14 -4 28 -10 31 -6 4 -10 -7 -10 -24
0 -21 -5 -31 -15 -31 -10 0 -15 10 -15 30 0 17 -4 30 -10 30 -5 0 -10 -14 -10
-31 0 -49 -25 -29 -28 24 -3 45 -3 46 30 50 57 7 131 7 186 1z m61 -165 c55
-64 50 -73 -50 -82 -48 -5 -129 -5 -180 0 -86 7 -94 10 -91 28 2 11 17 31 33
45 16 14 29 31 29 38 0 9 29 12 113 11 l112 -1 34 -39z m41 -215 c0 -93 -3
-113 -16 -118 -20 -8 -318 -8 -338 0 -13 5 -16 25 -16 118 l0 111 185 0 185 0
0 -111z m-244 -148 c54 -4 132 -3 172 2 76 9 90 1 56 -32 -13 -13 -43 -16
-169 -16 -148 0 -154 1 -169 22 -20 28 -20 42 -3 35 8 -3 58 -8 113 -11z M510
436 c0 -21 -5 -26 -24 -26 -17 0 -26 -7 -30 -26 -8 -30 -1 -40 29 -46 13 -2
21 -12 23 -31 3 -25 7 -28 35 -25 27 2 33 8 35 31 3 21 8 27 28 27 22 0 25 4
22 33 -2 24 -8 33 -25 35 -14 2 -23 11 -25 25 -2 17 -11 23 -35 25 -30 3 -33
1 -33 -22z m50 -21 c0 -20 5 -25 26 -25 33 0 30 -33 -4 -38 -16 -3 -22 -10
-22 -28 0 -15 -6 -24 -15 -24 -9 0 -15 9 -15 25 0 20 -5 25 -25 25 -18 0 -25
5 -25 20 0 15 7 20 25 20 20 0 25 5 25 25 0 16 6 25 15 25 9 0 15 -9 15 -25z"/>
</g>
</svg>
