<?xml version="1.0" standalone="no"?>
<!DOCTYPE svg PUBLIC "-//W3C//DTD SVG 20010904//EN"
 "http://www.w3.org/TR/2001/REC-SVG-20010904/DTD/svg10.dtd">
<svg version="1.0" xmlns="http://www.w3.org/2000/svg"
 width="78.755195pt" height="55.940721pt" viewBox="0 0 78.755195 55.940721"
 preserveAspectRatio="xMidYMid meet">
<metadata>
Created by potrace 1.16, written by Peter Selinger 2001-2019
</metadata>
<g transform="translate(-11.175238,78.940721) scale(0.100000,-0.100000)"
fill="#07847f" stroke="none">
<path d="M734 782 c-6 -4 -23 -31 -38 -59 -25 -50 -28 -53 -65 -53 -22 0 -44
-6 -51 -15 -10 -12 -41 -15 -157 -15 -187 0 -196 -4 -262 -111 -56 -91 -61
-119 -31 -149 11 -11 29 -44 40 -74 14 -36 28 -57 46 -64 17 -8 113 -12 298
-12 312 0 312 0 336 84 7 25 21 53 31 62 30 27 23 74 -22 159 -33 61 -49 80
-78 93 -20 9 -37 17 -39 18 -2 1 9 27 24 57 23 47 25 58 15 71 -15 17 -30 20
-47 8z m31 -22 c3 -5 -8 -34 -26 -64 l-31 -56 21 -26 c28 -35 27 -54 -9 -124
l-30 -60 -245 0 c-135 0 -245 3 -245 8 0 4 15 32 33 62 l33 55 123 3 c115 2
123 1 116 -15 -30 -74 -7 -66 31 10 38 77 61 97 105 97 36 0 40 3 71 60 33 60
42 68 53 50z m-229 -156 c-3 -9 -6 -18 -6 -20 0 -2 -60 -4 -134 -4 -152 0
-145 3 -196 -92 -42 -81 -54 -78 310 -78 289 0 321 2 327 17 4 9 -10 49 -35
97 -22 44 -39 82 -38 83 19 20 116 -132 116 -181 0 -54 -15 -56 -371 -56 -180
0 -335 3 -344 6 -28 11 -37 51 -18 87 36 71 87 137 112 146 14 5 84 10 155 10
113 1 127 -1 122 -15z m261 -118 c12 -24 19 -47 16 -50 -4 -3 -28 -6 -54 -6
l-47 0 27 50 c14 27 28 50 32 50 3 0 15 -20 26 -44z m31 -168 c-22 -68 -21
-68 -315 -68 -170 0 -272 4 -285 11 -16 9 -48 64 -48 84 0 3 148 5 329 5 l330
0 -11 -32z M587 598 c-40 -66 -57 -101 -52 -107 7 -7 17 6 59 76 39 65 45 39
7 -29 -33 -59 -36 -68 -22 -68 5 0 24 27 43 60 18 33 36 60 40 60 13 0 9 -11
-22 -67 -16 -29 -30 -57 -30 -63 0 -24 17 -6 48 50 18 33 38 58 43 54 6 -3 -3
-28 -21 -61 -17 -30 -29 -58 -25 -61 8 -8 20 7 50 65 15 29 24 57 20 63 -10
16 -81 50 -104 50 -11 0 -27 -10 -34 -22z M418 533 c7 -3 16 -2 19 1 4 3 -2 6
-13 5 -11 0 -14 -3 -6 -6z M320 510 c0 -5 6 -10 14 -10 8 0 18 5 21 10 3 6 -3
10 -14 10 -12 0 -21 -4 -21 -10z M365 480 c-3 -5 3 -10 15 -10 12 0 18 5 15
10 -3 6 -10 10 -15 10 -5 0 -12 -4 -15 -10z M475 470 c3 -5 10 -10 16 -10 5 0
9 5 9 10 0 6 -7 10 -16 10 -8 0 -12 -4 -9 -10z M410 450 c0 -5 7 -10 15 -10 8
0 15 5 15 10 0 6 -7 10 -15 10 -8 0 -15 -4 -15 -10z M520 450 c0 -5 7 -10 15
-10 8 0 15 5 15 10 0 6 -7 10 -15 10 -8 0 -15 -4 -15 -10z"/>
</g>
</svg>
