<?xml version="1.0" standalone="no"?>
<!DOCTYPE svg PUBLIC "-//W3C//DTD SVG 20010904//EN"
 "http://www.w3.org/TR/2001/REC-SVG-20010904/DTD/svg10.dtd">
<svg version="1.0" xmlns="http://www.w3.org/2000/svg"
 width="49.564195pt" height="51.627876pt" viewBox="0 0 49.564195 51.627876"
 preserveAspectRatio="xMidYMid meet">
<metadata>
Created by potrace 1.16, written by Peter Selinger 2001-2019
</metadata>
<g transform="translate(-27.993871,75.627876) scale(0.100000,-0.100000)"
fill="#07847f" stroke="none">
<path d="M475 745 c-36 -19 -62 -51 -70 -86 -4 -19 -17 -31 -45 -42 -70 -27
-101 -117 -65 -187 15 -29 60 -60 87 -60 8 0 20 -19 28 -42 18 -50 67 -88 115
-88 48 0 97 38 115 88 11 32 20 42 36 42 62 0 117 96 95 163 -14 41 -63 87
-92 87 -11 0 -22 8 -25 18 -15 48 -36 83 -58 97 -36 24 -87 28 -121 10z m103
-31 c26 -18 52 -65 52 -94 0 -14 6 -20 21 -20 30 0 76 -29 88 -57 32 -70 -16
-153 -88 -153 -15 0 -22 -9 -26 -34 -13 -66 -73 -105 -131 -86 -36 12 -58 40
-68 88 -6 25 -13 32 -32 32 -13 0 -38 13 -56 29 -28 25 -33 36 -33 76 0 40 5
51 33 76 18 16 43 29 56 29 19 0 25 7 31 37 14 76 96 117 153 77z M514 566
c-4 -9 -4 -20 0 -23 3 -4 12 -1 18 5 9 9 9 15 0 24 -9 9 -13 7 -18 -6z M445
501 c-7 -12 12 -24 25 -16 11 7 4 25 -10 25 -5 0 -11 -4 -15 -9z M570 495 c0
-8 7 -15 15 -15 8 0 15 7 15 15 0 8 -7 15 -15 15 -8 0 -15 -7 -15 -15z M510
430 c0 -13 5 -20 13 -17 6 2 12 10 12 17 0 7 -6 15 -12 18 -8 2 -13 -5 -13
-18z"/>
</g>
</svg>
