<?xml version="1.0" standalone="no"?>
<!DOCTYPE svg PUBLIC "-//W3C//DTD SVG 20010904//EN"
 "http://www.w3.org/TR/2001/REC-SVG-20010904/DTD/svg10.dtd">
<svg version="1.0" xmlns="http://www.w3.org/2000/svg"
 width="64.857846pt" height="48.174126pt" viewBox="0 0 64.857846 48.174126"
 preserveAspectRatio="xMidYMid meet">
<metadata>
Created by potrace 1.16, written by Peter Selinger 2001-2019
</metadata>
<g transform="translate(-13.016755,71.360492) scale(0.100000,-0.100000)"
fill="#07847f" stroke="none">
<path d="M624 709 c-30 -11 -37 -25 -41 -82 -2 -43 1 -52 32 -84 30 -31 38
-35 69 -29 30 6 37 3 50 -16 44 -70 3 -162 -78 -175 -36 -6 -38 -5 -27 15 29
55 -2 160 -60 205 -53 40 -110 53 -171 39 -44 -11 -52 -10 -63 5 -18 25 -74
21 -97 -6 -20 -26 -23 -53 -8 -81 8 -15 5 -24 -12 -43 -64 -69 -88 -97 -88
-104 1 -17 77 -83 114 -98 52 -22 189 -30 256 -16 30 6 69 23 86 36 20 15 46
25 66 25 110 0 169 141 92 221 -24 25 -33 28 -62 23 -34 -7 -35 -6 -28 22 4
15 16 34 27 42 22 15 26 74 7 89 -22 17 -42 21 -64 12z m50 -41 c8 -14 7 -21
-6 -34 -30 -30 -75 9 -48 42 16 18 39 15 54 -8z m-45 -67 c7 -5 11 -14 7 -19
-9 -15 -36 -4 -36 14 0 16 9 18 29 5z m-310 -35 c15 -18 5 -41 -25 -55 -32
-14 -32 -14 -43 7 -21 40 40 82 68 48z m195 -20 c103 -43 135 -183 55 -250
-38 -33 -77 -39 -197 -34 -126 5 -178 29 -184 84 -4 31 1 42 40 85 24 27 55
52 68 55 13 4 34 18 45 33 11 14 28 29 37 33 29 12 101 9 136 -6z M630 655 c0
-8 7 -15 15 -15 8 0 15 7 15 15 0 8 -7 15 -15 15 -8 0 -15 -7 -15 -15z M360
510 c-18 -18 -28 -50 -15 -50 2 0 16 12 30 26 24 24 28 25 48 11 40 -26 30
-87 -14 -87 -11 0 -19 -4 -19 -10 0 -18 46 -11 65 10 59 65 -33 162 -95 100z
M270 395 c-17 -20 -5 -45 20 -45 11 0 23 7 26 15 6 15 -11 45 -26 45 -4 0 -13
-7 -20 -15z"/>
</g>
</svg>
