<?xml version="1.0" standalone="no"?>
<!DOCTYPE svg PUBLIC "-//W3C//DTD SVG 20010904//EN"
 "http://www.w3.org/TR/2001/REC-SVG-20010904/DTD/svg10.dtd">
<svg version="1.0" xmlns="http://www.w3.org/2000/svg"
 width="96.000000pt" height="96.000000pt" viewBox="0 0 96.000000 96.000000"
 preserveAspectRatio="xMidYMid meet">
<metadata>
Created by potrace 1.16, written by Peter Selinger 2001-2019
</metadata>
<g transform="translate(0.000000,96.000000) scale(0.100000,-0.100000)"
fill="#6264f6" stroke="none">
<path d="M730 800 c0 -5 -9 -10 -19 -10 -11 0 -26 -7 -35 -15 -8 -8 -19 -15
-24 -15 -5 0 -17 -9 -27 -20 -10 -11 -23 -20 -28 -20 -5 0 -21 -12 -34 -27
-21 -22 -28 -25 -44 -14 -11 6 -41 14 -67 18 -26 3 -51 9 -57 13 -5 5 -40 11
-78 15 -37 4 -70 11 -72 16 -8 12 -64 -23 -71 -43 -10 -32 5 -54 51 -77 25
-12 45 -26 45 -30 0 -4 20 -15 45 -25 24 -10 52 -27 61 -37 16 -18 16 -21 -4
-42 -12 -13 -22 -26 -22 -30 0 -4 -9 -16 -20 -27 -16 -16 -33 -20 -84 -20 -86
0 -96 -5 -96 -46 0 -19 3 -34 8 -34 13 0 132 -121 132 -134 0 -20 34 -46 61
-46 38 0 49 19 49 81 0 56 1 58 51 103 57 51 66 54 85 29 15 -19 88 -167 98
-195 8 -28 59 -23 90 8 26 26 35 67 17 78 -5 4 -12 41 -16 84 -4 42 -11 82
-16 88 -5 6 -10 36 -12 67 -2 49 1 59 26 84 15 16 27 34 27 41 0 6 6 15 13 19
25 16 47 63 47 102 0 34 -4 42 -32 55 -36 19 -48 20 -48 6z m27 -87 c-4 -20
-13 -41 -22 -45 -8 -5 -15 -15 -15 -21 0 -7 -18 -31 -40 -52 -36 -35 -40 -44
-40 -86 0 -26 4 -50 9 -54 5 -3 12 -31 16 -63 3 -31 10 -66 15 -77 8 -18 14
-62 11 -92 -2 -27 -18 -10 -51 55 -19 37 -44 81 -57 98 -13 17 -23 35 -23 41
0 5 -9 18 -20 28 -11 10 -20 13 -20 7 0 -7 -6 -12 -13 -12 -7 0 -26 -13 -42
-30 -16 -16 -34 -30 -40 -30 -17 0 -68 -57 -61 -68 4 -6 2 -14 -4 -17 -6 -4
-10 -16 -9 -28 1 -12 1 -30 1 -41 -3 -31 -32 1 -32 35 0 25 -5 30 -29 35 -38
8 -66 38 -57 60 5 13 9 15 18 6 26 -26 62 -13 120 45 32 32 58 62 58 68 0 6
16 26 35 45 35 34 45 60 24 60 -7 0 -17 -7 -24 -17 -14 -19 -25 -15 -110 42
-16 11 -49 29 -72 40 -24 11 -43 24 -43 28 0 13 30 20 43 9 6 -5 37 -13 67
-17 30 -4 57 -11 60 -15 3 -4 40 -11 82 -15 66 -6 79 -4 84 9 3 9 12 16 19 16
6 0 20 9 30 20 10 11 23 20 29 20 6 1 25 12 41 25 17 14 38 25 49 25 16 0 18
-5 13 -37z"/>
</g>
</svg>
