<?xml version="1.0" standalone="no"?>
<!DOCTYPE svg PUBLIC "-//W3C//DTD SVG 20010904//EN"
 "http://www.w3.org/TR/2001/REC-SVG-20010904/DTD/svg10.dtd">
<svg version="1.0" xmlns="http://www.w3.org/2000/svg"
 width="57.910520pt" height="54.020142pt" viewBox="0 0 57.910520 54.020142"
 preserveAspectRatio="xMidYMid meet">
<metadata>
Created by potrace 1.16, written by Peter Selinger 2001-2019
</metadata>
<g transform="translate(-15.089480,75.000000) scale(0.100000,-0.100000)"
fill="#07847f" stroke="none">
<path d="M315 727 c-18 -15 -28 -36 -32 -65 -6 -41 -6 -42 -44 -42 -43 0 -75
-24 -85 -64 -3 -13 -4 -88 -2 -166 4 -193 -17 -180 283 -180 128 0 241 3 250
6 35 14 45 58 45 199 0 172 -14 204 -91 205 -35 0 -37 1 -42 42 -4 29 -14 50
-32 65 -23 21 -37 23 -125 23 -88 0 -102 -2 -125 -23z m225 -10 c20 -10 26
-21 28 -55 2 -25 -1 -42 -7 -42 -6 0 -11 11 -11 24 0 44 -24 56 -110 56 -86 0
-110 -12 -110 -56 0 -13 -4 -24 -10 -24 -5 0 -10 18 -10 39 0 57 24 71 125 71
44 0 91 -6 105 -13z m-23 -48 c6 -6 8 -19 6 -30 -5 -17 -15 -19 -84 -19 -62 0
-81 3 -85 15 -12 31 15 45 85 45 37 0 72 -5 78 -11z m165 -86 c16 -14 18 -33
18 -166 0 -126 -3 -153 -17 -169 -15 -16 -36 -18 -241 -18 -196 0 -228 2 -244
17 -16 14 -18 33 -18 166 0 126 3 153 17 169 15 16 36 18 241 18 196 0 228 -2
244 -17z M390 490 c0 -27 -3 -30 -30 -30 -29 0 -30 -1 -30 -50 0 -49 1 -50 30
-50 27 0 30 -3 30 -30 0 -29 1 -30 50 -30 49 0 50 1 50 30 0 27 3 30 30 30 29
0 30 1 30 50 0 49 -1 50 -30 50 -27 0 -30 3 -30 30 0 29 -1 30 -50 30 -49 0
-50 -1 -50 -30z m70 -20 c0 -28 3 -30 36 -30 33 0 35 -2 32 -27 -2 -23 -8 -29
-35 -31 -29 -3 -33 -7 -33 -33 0 -24 -4 -29 -25 -29 -22 0 -25 4 -25 34 0 32
-2 35 -27 33 -24 -2 -29 2 -31 26 -3 24 0 27 27 27 28 0 31 3 31 30 0 25 4 30
25 30 21 0 25 -5 25 -30z"/>
</g>
</svg>
