<?xml version="1.0" standalone="no"?>
<!DOCTYPE svg PUBLIC "-//W3C//DTD SVG 20010904//EN"
 "http://www.w3.org/TR/2001/REC-SVG-20010904/DTD/svg10.dtd">
<svg version="1.0" xmlns="http://www.w3.org/2000/svg"
 width="47.085193pt" height="56.150509pt" viewBox="0 0 47.085193 56.150509"
 preserveAspectRatio="xMidYMid meet">
<metadata>
Created by potrace 1.16, written by Peter Selinger 2001-2019
</metadata>
<g transform="translate(-33.189601,77.000536) scale(0.100000,-0.100000)"
fill="#07847f" stroke="none">
<path d="M416 749 c-26 -20 -26 -22 -26 -150 0 -122 -1 -132 -24 -162 -63 -83
-35 -189 58 -221 103 -35 205 60 176 165 -6 20 -19 44 -30 54 -28 25 -28 85 0
85 11 0 20 5 20 10 0 6 -9 10 -20 10 -27 0 -25 26 3 35 l22 8 -22 4 c-28 5
-30 33 -3 33 11 0 20 5 20 10 0 6 -9 10 -20 10 -16 0 -20 7 -20 30 0 86 -71
128 -134 79z m89 -24 c24 -23 25 -30 25 -151 0 -119 2 -129 23 -152 17 -19 22
-35 22 -79 0 -49 -3 -58 -33 -84 -63 -56 -158 -26 -181 58 -11 39 3 87 32 112
14 11 17 35 17 147 0 121 2 136 20 154 26 26 46 25 75 -5z M460 526 c0 -90 -3
-115 -14 -119 -8 -3 -22 -17 -31 -31 -28 -42 3 -96 54 -96 60 0 84 80 36 118
-24 19 -25 24 -25 131 0 67 -4 111 -10 111 -6 0 -10 -45 -10 -114z m34 -149
c38 -27 -2 -95 -41 -71 -25 16 -29 55 -7 71 10 7 21 13 24 13 3 0 14 -6 24
-13z M641 647 c-22 -22 -12 -66 25 -107 20 -22 42 -40 48 -40 7 0 29 18 50 39
40 41 49 78 27 105 -14 16 -134 19 -150 3z m59 -22 c12 -14 15 -14 31 1 10 9
25 14 34 11 25 -10 17 -49 -17 -84 l-32 -33 -33 32 c-41 40 -45 88 -8 88 7 0
18 -7 25 -15z"/>
</g>
</svg>
