<?xml version="1.0" standalone="no"?>
<!DOCTYPE svg PUBLIC "-//W3C//DTD SVG 20010904//EN"
 "http://www.w3.org/TR/2001/REC-SVG-20010904/DTD/svg10.dtd">
<svg version="1.0" xmlns="http://www.w3.org/2000/svg"
 width="72.683115pt" height="55.351678pt" viewBox="0 0 72.683115 55.351678"
 preserveAspectRatio="xMidYMid meet">
<metadata>
Created by potrace 1.16, written by Peter Selinger 2001-2019
</metadata>
<g transform="translate(-13.033344,75.933673) scale(0.100000,-0.100000)"
fill="#07847f" stroke="none">
<path d="M460 745 c-9 -10 -23 -13 -49 -9 -29 5 -40 2 -55 -15 -11 -12 -27
-21 -36 -21 -21 0 -50 -31 -50 -54 0 -10 -14 -23 -33 -31 -19 -8 -39 -20 -45
-28 -19 -23 -69 -251 -61 -275 37 -99 423 -143 617 -70 65 24 116 69 108 95
-2 10 -17 71 -31 136 -25 110 -29 119 -58 134 -17 8 -40 26 -50 39 -10 13 -26
24 -36 24 -9 0 -27 14 -40 31 -17 23 -29 30 -50 28 -14 -2 -37 4 -51 14 -30
21 -63 22 -80 2z m75 -31 c20 -22 26 -24 44 -13 17 11 23 10 41 -6 11 -10 19
-25 18 -34 -2 -11 4 -15 20 -13 30 4 52 -14 52 -44 0 -21 3 -24 26 -18 20 5
26 3 22 -7 -2 -8 -35 -25 -74 -38 -124 -43 -376 -29 -448 25 -25 18 -12 32 14
16 26 -16 29 -15 23 7 -3 12 3 24 17 34 14 10 18 17 10 22 -19 12 10 37 37 30
16 -4 23 -1 23 9 0 9 9 20 21 26 16 9 24 8 39 -5 17 -15 20 -15 43 9 32 32 42
32 72 0z m-175 -214 c134 -21 289 -7 372 34 l48 23 9 -33 c23 -83 43 -194 38
-208 -26 -67 -328 -110 -509 -71 -83 17 -156 49 -164 70 -4 9 5 67 20 129 l27
113 47 -23 c26 -13 76 -28 112 -34z M539 664 c-9 -11 -9 -18 -1 -26 14 -14 42
-3 42 16 0 20 -27 27 -41 10z M452 658 c-7 -7 -12 -18 -12 -25 0 -15 37 -36
50 -28 16 10 12 52 -6 59 -20 8 -18 8 -32 -6z m27 -23 c3 -12 -13 -9 -17 4 -2
7 0 11 6 7 5 -3 10 -8 11 -11z M342 648 c-15 -15 -16 -48 -2 -48 6 0 10 9 10
21 0 16 4 19 20 14 14 -5 20 -2 20 9 0 19 -31 21 -48 4z M592 613 c-13 -26 -4
-43 24 -43 29 0 41 24 24 45 -17 20 -37 19 -48 -2z m38 -11 c0 -13 -12 -22
-22 -16 -10 6 -1 24 13 24 5 0 9 -4 9 -8z M384 586 c-10 -26 4 -48 28 -44 33
4 33 52 0 56 -13 2 -25 -3 -28 -12z m36 -16 c0 -5 -4 -10 -10 -10 -5 0 -10 5
-10 10 0 6 5 10 10 10 6 0 10 -4 10 -10z M504 585 c-7 -17 12 -45 31 -45 7 0
18 7 25 15 10 12 10 18 0 30 -16 19 -49 19 -56 0z m46 -15 c0 -5 -7 -10 -15
-10 -8 0 -15 5 -15 10 0 6 7 10 15 10 8 0 15 -4 15 -10z M416 431 c-4 -5 -9
-37 -12 -70 l-7 -61 39 -16 c46 -19 107 -14 136 13 17 15 19 25 14 66 -4 26
-9 54 -12 62 -8 19 -28 19 -43 1 -14 -16 -56 -15 -73 2 -14 14 -35 15 -42 3z
m81 -37 c18 0 36 3 39 8 11 18 22 6 28 -33 4 -26 2 -46 -5 -55 -17 -20 -75
-28 -109 -14 -31 13 -34 21 -24 83 6 32 9 35 22 25 8 -7 30 -13 49 -14z"/>
</g>
</svg>
