<?xml version="1.0" standalone="no"?>
<!DOCTYPE svg PUBLIC "-//W3C//DTD SVG 20010904//EN"
 "http://www.w3.org/TR/2001/REC-SVG-20010904/DTD/svg10.dtd">
<svg version="1.0" xmlns="http://www.w3.org/2000/svg"
 width="58.908763pt" height="14.561930pt" viewBox="0 0 58.908763 14.561930"
 preserveAspectRatio="xMidYMid meet">
<metadata>
Created by potrace 1.16, written by Peter Selinger 2001-2019
</metadata>
<g transform="translate(-17.091237,61.000000) scale(0.100000,-0.100000)"
fill="#07847f" stroke="none">
<path d="M195 585 c-40 -39 -29 -97 22 -116 58 -22 116 36 94 94 -19 51 -77
62 -116 22z m83 -17 c15 -15 15 -51 0 -66 -28 -28 -78 -7 -78 33 0 27 18 45
45 45 12 0 26 -5 33 -12z M423 595 c-45 -32 -37 -103 15 -124 59 -25 116 32
92 93 -16 44 -67 59 -107 31z m75 -27 c7 -7 12 -21 12 -33 0 -12 -5 -26 -12
-33 -28 -28 -78 -7 -78 33 0 12 5 26 12 33 7 7 21 12 33 12 12 0 26 -5 33 -12z
M646 589 c-36 -29 -36 -80 1 -109 47 -37 113 -2 113 60 0 31 -39 70 -70 70
-10 0 -29 -9 -44 -21z m84 -29 c6 -12 8 -30 5 -40 -7 -24 -52 -37 -74 -23 -20
13 -26 50 -11 69 19 21 67 18 80 -6z"/>
</g>
</svg>
