<?xml version="1.0" standalone="no"?>
<!DOCTYPE svg PUBLIC "-//W3C//DTD SVG 20010904//EN"
 "http://www.w3.org/TR/2001/REC-SVG-20010904/DTD/svg10.dtd">
<svg version="1.0" xmlns="http://www.w3.org/2000/svg"
 width="57.000000pt" height="61.970842pt" viewBox="0 0 57.000000 61.970842"
 preserveAspectRatio="xMidYMid meet">
<metadata>
Created by potrace 1.16, written by Peter Selinger 2001-2019
</metadata>
<g transform="translate(-17.000000,82.970842) scale(0.100000,-0.100000)"
fill="#07847f" stroke="none">
<path d="M383 810 c-34 -20 -66 -73 -78 -127 -6 -31 -10 -33 -46 -33 -29 0
-47 -7 -64 -25 -25 -24 -25 -27 -25 -190 l0 -167 29 -29 29 -29 227 0 227 0
29 29 29 29 0 167 c0 163 0 166 -25 190 -17 18 -35 25 -63 25 -38 0 -38 1 -51
50 -7 27 -22 61 -33 75 -44 56 -126 71 -185 35z m133 -19 c36 -22 60 -69 74
-142 15 -79 13 -99 -10 -99 -16 0 -20 7 -20 38 -1 147 -94 234 -163 152 -25
-29 -47 -104 -47 -160 0 -24 -4 -30 -21 -30 -20 0 -21 3 -15 53 11 83 25 124
53 157 44 53 96 63 149 31z m-18 -63 c11 -13 24 -35 27 -50 l7 -28 -77 0 c-66
0 -76 2 -71 16 3 9 6 19 6 23 0 5 9 20 21 35 25 32 59 33 87 4z m-210 -143
c-6 -52 6 -68 49 -63 25 3 29 8 37 56 l9 52 73 0 73 0 6 -37 c4 -21 7 -45 8
-53 3 -18 53 -26 71 -11 9 8 12 26 8 56 -4 41 -3 45 16 45 34 0 72 -22 78 -45
3 -13 4 -89 2 -170 -4 -198 15 -185 -265 -185 -280 0 -263 -13 -263 203 0 179
6 194 79 196 22 1 23 -2 19 -44z M397 483 c-11 -11 -8 -48 5 -61 17 -17 26
-15 38 8 18 34 -18 78 -43 53z m25 -45 c-9 -9 -12 -7 -12 12 0 19 3 21 12 12
9 -9 9 -15 0 -24z M467 484 c-11 -11 -8 -62 3 -69 18 -11 41 17 38 44 -3 25
-27 39 -41 25z m23 -35 c0 -11 -4 -18 -10 -14 -5 3 -7 12 -3 20 7 21 13 19 13
-6z M347 434 c-14 -15 -6 -54 13 -64 23 -13 34 3 28 42 -3 22 -27 35 -41 22z
m27 -29 c3 -8 1 -15 -4 -15 -6 0 -10 7 -10 15 0 8 2 15 4 15 2 0 6 -7 10 -15z
M522 428 c-7 -7 -12 -23 -12 -36 0 -19 5 -23 23 -20 17 2 22 10 22 32 0 32
-14 43 -33 24z m23 -17 c3 -5 1 -12 -5 -16 -5 -3 -10 1 -10 9 0 18 6 21 15 7z
M394 361 c-20 -31 -23 -43 -15 -59 9 -16 20 -19 73 -18 61 1 63 2 66 29 5 40
-32 87 -69 87 -22 0 -34 -8 -55 -39z m90 -3 c30 -43 21 -55 -36 -53 -57 1 -61
8 -32 53 18 28 48 28 68 0z"/>
</g>
</svg>
