<?xml version="1.0" standalone="no"?>
<!DOCTYPE svg PUBLIC "-//W3C//DTD SVG 20010904//EN"
 "http://www.w3.org/TR/2001/REC-SVG-20010904/DTD/svg10.dtd">
<svg version="1.0" xmlns="http://www.w3.org/2000/svg"
 width="96.000000pt" height="96.000000pt" viewBox="0 0 96.000000 96.000000"
 preserveAspectRatio="xMidYMid meet">
<metadata>
Created by potrace 1.16, written by Peter Selinger 2001-2019
</metadata>
<g transform="translate(0.000000,96.000000) scale(0.100000,-0.100000)"
fill="#07847f" stroke="none">
<path d="M387 782 c-23 -10 -47 -57 -47 -93 0 -24 -4 -29 -23 -29 -13 0 -27
-3 -31 -7 -4 -5 -11 -8 -15 -8 -3 0 -19 -10 -34 -21 l-27 -22 0 -196 c0 -183
1 -197 20 -216 19 -19 33 -20 243 -20 291 0 267 -21 267 238 0 173 -2 194 -18
210 -29 27 -60 42 -87 42 -22 0 -25 4 -25 33 0 24 -9 42 -33 65 -31 30 -37 32
-102 31 -39 0 -78 -4 -88 -7z m161 -84 l3 -38 -70 0 -71 0 0 40 0 41 68 -3 67
-3 3 -37z m-63 -108 c0 -11 -13 -16 -49 -18 -50 -3 -74 7 -61 28 11 17 110 9
110 -10z m138 -89 c7 -35 -2 -73 -17 -68 -12 4 -21 61 -12 83 9 23 23 16 29
-15z m-163 -55 c0 -7 -10 -16 -22 -20 -36 -9 -106 -7 -113 4 -13 21 8 30 71
30 48 0 64 -3 64 -14z m164 -153 c-4 -19 -11 -32 -18 -30 -16 5 -20 76 -5 94
11 13 14 12 21 -8 5 -12 6 -37 2 -56z m-216 25 c3 -15 -4 -18 -37 -18 -40 0
-58 11 -46 31 11 17 79 7 83 -13z"/>
</g>
</svg>
