<?xml version="1.0" standalone="no"?>
<!DOCTYPE svg PUBLIC "-//W3C//DTD SVG 20010904//EN"
 "http://www.w3.org/TR/2001/REC-SVG-20010904/DTD/svg10.dtd">
<svg version="1.0" xmlns="http://www.w3.org/2000/svg"
 width="56.183975pt" height="14.732010pt" viewBox="0 0 56.183975 14.732010"
 preserveAspectRatio="xMidYMid meet">
<metadata>
Created by potrace 1.16, written by Peter Selinger 2001-2019
</metadata>
<g transform="translate(-9.551173,49.972173) scale(0.100000,-0.100000)"
fill="#07847f" stroke="none">
<path d="M134 488 c-55 -26 -50 -105 7 -129 26 -10 34 -9 57 8 66 49 9 156
-64 121z m54 -30 c24 -24 8 -78 -24 -78 -17 0 -44 28 -44 45 0 17 27 45 44 45
6 0 17 -5 24 -12z M355 490 c-52 -21 -60 -88 -14 -122 54 -40 125 19 99 82 -9
21 -50 53 -63 49 -1 0 -11 -4 -22 -9z m49 -36 c9 -8 16 -22 16 -29 0 -17 -27
-45 -44 -45 -32 0 -48 54 -24 78 16 16 33 15 52 -4z M563 488 c-12 -6 -27 -24
-34 -41 -26 -62 46 -120 100 -80 65 49 8 156 -66 121z m55 -30 c17 -17 15 -53
-3 -68 -12 -10 -21 -10 -40 -2 -29 13 -33 43 -9 66 19 19 36 20 52 4z"/>
</g>
</svg>
