<?xml version="1.0" standalone="no"?>
<!DOCTYPE svg PUBLIC "-//W3C//DTD SVG 20010904//EN"
 "http://www.w3.org/TR/2001/REC-SVG-20010904/DTD/svg10.dtd">
<svg version="1.0" xmlns="http://www.w3.org/2000/svg"
 width="96.000000pt" height="96.000000pt" viewBox="0 0 96.000000 96.000000"
 preserveAspectRatio="xMidYMid meet">
<metadata>
Created by potrace 1.16, written by Peter Selinger 2001-2019
</metadata>
<g transform="translate(0.000000,96.000000) scale(0.100000,-0.100000)"
fill="#ef8a00" stroke="none">
<path d="M292 734 c-21 -15 -62 -86 -62 -109 0 -28 39 -88 68 -105 18 -11 50
-20 72 -20 32 0 47 7 81 40 41 39 41 40 37 96 -4 49 -10 62 -37 86 -26 23 -40
28 -84 28 -31 0 -61 -6 -75 -16z m140 -42 c6 -6 13 -31 15 -55 5 -40 2 -49
-22 -71 -58 -54 -135 -20 -135 61 0 62 27 87 87 80 25 -2 49 -9 55 -15z"/>
<path d="M554 706 c-15 -12 -17 -17 -6 -28 10 -10 17 -10 32 0 31 19 54 14 83
-16 35 -36 34 -53 -4 -91 -34 -34 -41 -36 -68 -19 -21 13 -51 5 -51 -14 0 -15
45 -38 72 -38 42 0 118 73 118 113 0 23 -40 92 -58 99 -30 12 -98 8 -118 -6z"/>
<path d="M417 469 c-26 -15 -21 -26 16 -32 18 -3 47 -18 65 -33 28 -25 32 -34
32 -80 l0 -52 -62 -7 c-35 -3 -106 -5 -158 -3 l-95 3 -3 52 c-3 56 10 93 33
93 8 0 15 4 15 10 0 5 18 13 40 16 51 8 47 28 -7 32 -36 3 -43 -1 -82 -43
l-42 -45 3 -78 3 -77 195 0 195 0 3 55 c5 79 -4 113 -41 153 -34 37 -80 52
-110 36z"/>
<path d="M585 460 c-11 -18 5 -29 34 -24 43 9 117 -37 125 -77 17 -88 2 -107
-80 -94 -35 5 -45 3 -50 -10 -4 -9 -3 -19 0 -23 11 -10 149 -2 163 10 8 6 13
35 13 74 0 62 -2 66 -41 109 -40 43 -44 45 -100 45 -32 0 -61 -4 -64 -10z"/>
</g>
</svg>
