<svg id="catcare-pending" xmlns="http://www.w3.org/2000/svg" width="24" height="24" viewBox="0 0 24 24">
  <g transform="translate(0 24) scale(0.025 -0.025)" fill="#05807b">
<path d="M367 849 c-116 -40 -188 -102 -238 -206 -161 -332 202 -678 532 -507
89 45 161 132 194 232 26 82 18 200 -20 276 -89 178 -290 266 -468 205z m218
-64 c155 -46 247 -209 213 -383 -16 -85 -110 -186 -204 -222 -62 -23 -146 -26
-208 -8 -85 24 -174 105 -203 183 -21 58 -24 181 -5 230 64 166 235 250 407
200z"/>
<path d="M446 675 c-3 -9 -6 -60 -6 -114 0 -93 1 -98 28 -122 37 -34 136 -99
150 -99 10 0 32 30 32 44 0 3 -28 26 -62 52 -35 26 -65 49 -68 52 -3 2 -7 47
-10 100 -5 96 -5 97 -31 100 -17 2 -29 -3 -33 -13z"/>
</g>
</svg>
