<svg id="catcare-pet-supplies" xmlns="http://www.w3.org/2000/svg" width="24" height="24" viewBox="0 0 24 24">
  <g transform="translate(0 24) scale(0.025 -0.025)" fill="#05807b">
<path d="M378 870 c-41 -27 -61 -57 -82 -122 -4 -14 -17 -18 -60 -18 -49 0
-57 -3 -85 -35 l-31 -36 -2 -217 c-4 -347 -6 -318 25 -350 l27 -27 304 -3 303
-3 32 26 31 27 0 270 c0 179 -4 277 -11 291 -20 39 -51 57 -101 57 l-46 0 -29
57 c-38 76 -94 113 -173 113 -46 0 -65 -6 -102 -30z m172 -53 c28 -14 51 -53
43 -74 -4 -11 -28 -13 -112 -11 -102 3 -106 4 -109 26 -4 26 13 50 43 62 31
13 107 11 135 -3z m-252 -195 c3 -46 22 -63 47 -42 8 7 15 24 15 39 0 45 15
51 126 51 108 0 121 -5 116 -45 -2 -11 4 -29 12 -40 23 -31 50 -9 54 44 l3 41
44 0 c24 0 47 -5 50 -11 4 -6 10 -119 14 -252 6 -196 5 -246 -6 -265 -13 -22
-14 -22 -293 -22 l-280 0 -16 25 c-14 22 -15 40 -5 157 6 73 12 180 13 237 2
118 10 134 67 129 35 -3 36 -4 39 -46z"/>
<path d="M516 413 l-35 -38 -34 33 c-39 38 -52 40 -68 11 -10 -19 -5 -27 37
-70 27 -27 55 -49 63 -49 13 0 111 92 111 105 0 13 -21 45 -30 45 -5 0 -25
-17 -44 -37z"/>
</g>
</svg>
