<svg id="catcare-results-review" xmlns="http://www.w3.org/2000/svg" width="24" height="24" viewBox="0 0 24 24">
  <g transform="translate(0 24) scale(0.025 -0.025)" fill="#05807b">
<path d="M596 818 c-14 -19 -16 -68 -16 -333 0 -229 4 -317 13 -335 11 -23 19
-25 88 -28 62 -2 79 0 90 14 11 14 14 76 13 341 -2 382 4 363 -105 363 -59 0
-70 -3 -83 -22z m122 -344 l2 -282 -27 -5 c-52 -10 -53 -5 -53 278 0 145 3
271 6 280 5 11 16 15 38 13 l31 -3 3 -281z"/>
<path d="M390 581 c-16 -31 -13 -422 4 -444 10 -12 27 -17 64 -17 80 0 82 6
82 246 0 111 -3 209 -6 218 -5 12 -21 16 -70 16 -52 0 -65 -3 -74 -19z m100
-222 c0 -173 -4 -191 -38 -157 -17 17 -17 325 1 331 34 12 37 -3 37 -174z"/>
<path d="M176 415 c-3 -9 -6 -72 -6 -139 0 -149 4 -156 97 -156 46 0 62 4 67
15 11 29 17 200 9 245 l-8 45 -77 3 c-62 2 -77 0 -82 -13z m109 -135 c0 -81
-1 -85 -22 -88 -22 -3 -23 -1 -23 81 0 87 4 100 30 95 12 -3 15 -19 15 -88z"/>
</g>
</svg>
