<svg id="catcare-save" xmlns="http://www.w3.org/2000/svg" width="24" height="24" viewBox="0 0 24 24">
  <g transform="translate(0 24) scale(0.025 -0.025)" fill="#05807b">
<path d="M170 475 l0 -315 315 0 315 0 0 315 0 315 -315 0 -315 0 0 -315z m120 150 c0 -78 3 -95 15 -95 8 0 15 -7 15 -15 0 -13 23 -15 145 -15 122 0 145 2 145 15 0 8 7 15 15 15 11 0 15 19 17 93 l3 92 43 3 42 3 0 -246 0 -246 -22 3 c-21 3 -23 9 -26 86 -2 64 -6 82 -17 82 -8 0 -15 7 -15 15 0 13 -25 15 -165 15 -140 0 -165 -2 -165 -15 0 -8 -7 -15 -15 -15 -12 0 -15 -16 -15 -85 0 -84 0 -85 -25 -85 l-25 0 0 245 0 245 25 0 c25 0 25 0 25 -95z m280 20 l0 -75 -105 0 -105 0 0 68 c0 38 3 72 7 75 3 4 51 7 105 7 l98 0 0 -75z m40 -350 l0 -66 -122 3 -123 3 -3 49 c-5 78 -8 76 128 76 l120 0 0 -65z"/>
  </g>
</svg>
