<svg id="catcare-search" xmlns="http://www.w3.org/2000/svg" width="24" height="24" viewBox="0 0 24 24">
  <g transform="translate(0 24) scale(0.025 -0.025)" fill="#05807b">
<path d="M315 766 c-27 -13 -62 -36 -77 -52 -90 -96 -90 -262 0 -358 69 -73 195 -97 293 -54 l50 21 80 -79 79 -79 27 28 28 27 -79 79 -79 80 21 50 c43 98 19 224 -54 293 -75 70 -196 88 -289 44z m195 -71 c59 -30 93 -89 93 -160 0 -105 -73 -178 -178 -178 -74 0 -130 35 -165 103 -18 34 -16 119 3 157 20 39 70 81 105 89 15 3 32 7 37 9 16 5 78 -7 105 -20z"/>
  </g>
</svg>
