<svg id="catcare-share-link" xmlns="http://www.w3.org/2000/svg" width="24" height="24" viewBox="0 0 24 24">
  <g transform="translate(0 24) scale(0.025 -0.025)" fill="#05807b">
<path d="M596 877 c-53 -27 -176 -145 -176 -168 0 -15 44 -49 64 -49 3 0 32
27 65 59 72 71 110 86 164 67 49 -17 77 -58 77 -113 0 -41 -4 -47 -112 -153
-123 -121 -145 -131 -188 -85 -13 14 -31 25 -40 25 -21 0 -50 -31 -50 -54 0
-28 53 -73 100 -86 78 -21 102 -9 224 110 62 60 122 128 134 151 31 58 30 146
-2 197 -38 60 -79 92 -137 107 -66 18 -74 17 -123 -8z"/>
<path d="M347 630 c-63 -34 -219 -198 -250 -263 -32 -68 -33 -86 -10 -151 20
-55 93 -136 123 -136 10 0 22 -4 25 -10 11 -17 97 -11 141 10 48 24 164 133
164 155 0 17 -35 55 -51 55 -6 0 -36 -24 -67 -54 -94 -88 -156 -97 -219 -30
-36 38 -43 81 -20 120 13 23 114 132 161 174 25 23 36 25 118 25 105 0 126 13
92 58 -44 59 -142 81 -207 47z"/>
</g>
</svg>
