<svg id="catcare-sitter-complete" xmlns="http://www.w3.org/2000/svg" width="24" height="24" viewBox="0 0 24 24">
  <g transform="translate(0 24) scale(0.025 -0.025)" fill="#05807b">
<path d="M286 841 c-54 -29 -67 -41 -87 -86 -74 -162 103 -329 256 -242 52 30
96 93 102 148 5 55 -26 120 -80 163 -49 39 -132 46 -191 17z m158 -62 c73 -57
73 -151 0 -208 -31 -24 -105 -28 -142 -7 -34 18 -62 66 -62 106 0 46 29 101
60 117 40 20 113 16 144 -8z"/>
<path d="M588 471 c-103 -65 -119 -219 -31 -303 104 -100 265 -66 324 67 25
57 18 116 -21 178 -55 87 -183 114 -272 58z m165 -35 c52 -22 79 -59 84 -113
6 -64 -20 -110 -78 -141 -67 -35 -136 -18 -179 45 -81 118 41 265 173 209z"/>
<path d="M720 335 l-44 -45 -23 22 c-18 17 -25 19 -37 8 -14 -10 -11 -18 22
-55 20 -24 42 -40 47 -37 6 4 35 33 64 64 45 49 52 60 41 73 -18 21 -21 20
-70 -30z"/>
<path d="M222 435 c-57 -16 -92 -35 -134 -74 -27 -24 -28 -29 -28 -118 0 -88
1 -93 22 -97 43 -9 237 -14 323 -8 80 5 86 6 83 26 -3 20 -9 21 -198 26 l-195
5 1 47 c0 55 24 87 89 121 32 17 62 22 157 25 89 3 120 8 130 19 10 12 9 18
-7 29 -25 18 -172 18 -243 -1z"/>
</g>
</svg>
