<svg id="catcare-trash" xmlns="http://www.w3.org/2000/svg" width="24" height="24" viewBox="0 0 24 24">
  <g transform="translate(0 24) scale(0.025 -0.025)" fill="#05807b">
<path d="M360 775 c0 -8 -7 -15 -15 -15 -9 0 -15 -9 -15 -25 0 -24 -2 -25 -65 -25 l-65 0 0 -35 c0 -30 3 -35 24 -35 28 0 26 9 57 -249 20 -166 26 -195 41 -199 10 -2 18 -11 18 -18 0 -11 28 -14 145 -14 117 0 145 3 145 14 0 7 8 16 18 18 15 4 21 33 41 199 31 258 29 249 57 249 21 0 24 5 24 35 l0 35 -65 0 c-63 0 -65 1 -65 25 0 16 -6 25 -15 25 -8 0 -15 7 -15 15 0 13 -21 15 -125 15 -104 0 -125 -2 -125 -15z m173 -62 c-24 -2 -62 -2 -85 0 -24 2 -5 4 42 4 47 0 66 -2 43 -4z m107 -80 c0 -5 -11 -96 -25 -203 -14 -107 -25 -196 -25 -197 0 -2 -47 -3 -105 -3 -58 0 -105 1 -105 3 0 1 -11 90 -25 197 -14 107 -25 198 -25 203 0 4 70 7 155 7 85 0 155 -3 155 -7z"/>
<path d="M390 425 l0 -95 35 0 35 0 0 95 0 95 -35 0 -35 0 0 -95z"/>
<path d="M510 425 l0 -95 35 0 35 0 0 95 0 95 -35 0 -35 0 0 -95z"/>
  </g>
</svg>
