<svg id="catcare-upload" xmlns="http://www.w3.org/2000/svg" width="24" height="24" viewBox="0 0 24 24">
  <g transform="translate(0 24) scale(0.025 -0.025)" fill="#05807b">
<path d="M390 755 l-95 -95 28 -27 27 -27 50 49 50 49 0 -177 0 -177 35 0 35 0 0 177 0 177 50 -49 50 -49 27 27 28 27 -95 95 -95 95 -95 -95z"/>
<path d="M170 275 c0 -69 3 -85 15 -85 8 0 15 -7 15 -15 0 -13 38 -15 285 -15 247 0 285 2 285 15 0 8 7 15 15 15 12 0 15 16 15 85 l0 85 -35 0 -35 0 0 -65 0 -65 -245 0 -245 0 0 65 0 65 -35 0 -35 0 0 -85z"/>
  </g>
</svg>
